<?xml version="1.0" encoding="UTF-8" standalone="no"?>
<svg
   xmlns:dc="http://purl.org/dc/elements/1.1/"
   xmlns:cc="http://creativecommons.org/ns#"
   xmlns:rdf="http://www.w3.org/1999/02/22-rdf-syntax-ns#"
   xmlns:svg="http://www.w3.org/2000/svg"
   xmlns="http://www.w3.org/2000/svg"
   id="svg4556"
   version="1.1"
   viewBox="0 0 13.229166 13.229167"
   height="50"
   width="50">
  <defs
     id="defs4550" />
  <metadata
     id="metadata4553">
    <rdf:RDF>
      <cc:Work
         rdf:about="">
        <dc:format>image/svg+xml</dc:format>
        <dc:type
           rdf:resource="http://purl.org/dc/dcmitype/StillImage" />
        <dc:title></dc:title>
      </cc:Work>
    </rdf:RDF>
  </metadata>
  <g
     transform="translate(0,-283.77082)"
     id="layer1">
    <g
       id="g5753"
       transform="matrix(0.20974804,0,0,0.20974804,-206.5749,227.7883)">
      <path
         style="fill:none;fill-opacity:1;stroke:#39434e;stroke-width:2.25399995;stroke-miterlimit:4;stroke-dasharray:none;stroke-opacity:1"
         d="m 991.46222,289.48392 h 50.92718 c 1.7883,0 3.228,1.4397 3.228,3.22803 0,1.78832 -1.4397,3.22802 -3.228,3.22802 h -50.92718 c -1.78833,0 -3.22803,-1.4397 -3.22803,-3.22802 0,-1.78833 1.4397,-3.22803 3.22803,-3.22803 z"
         id="rect5720" />
      <path
         style="fill:#39434e;fill-opacity:1;stroke:none;stroke-width:1px;stroke-linecap:butt;stroke-linejoin:miter;stroke-opacity:1"
         d="m 1033.4727,283.79521 h 1.5869 c 0.3084,-1.10412 0.5293,-2.24353 1.1205,-3.24114 0.3408,-0.66391 0.8915,-1.49997 1.7419,-1.32677 1.0035,0.20175 2.1219,0.68286 2.3038,1.80735 0.6227,1.04211 0.5033,0.90614 0.4982,2.04669 l -0.2094,5.92086 c 0.9349,-0.0636 2.1604,0.5604 2.783,0.15276 l 0.049,-6.70193 c -0.099,-1.01343 9e-4,-2.09156 -0.6187,-2.96386 -0.4548,-0.77529 -0.9719,-1.63723 -1.653,-2.20042 -0.9173,-0.21458 -1.6456,-0.92654 -2.607,-0.77463 -1.2409,0.0287 -2.4213,0.40876 -3.6068,0.73511 -0.7881,0.80142 -1.1996,1.84666 -1.6124,2.87089 -0.2316,1.04038 -1.1575,2.22367 -0.4442,3.21583 0.2227,0.15311 0.4454,0.30619 0.668,0.45932 z"
         id="path5723" />
      <path
         style="fill:#39434e;fill-opacity:1;stroke:none;stroke-width:1px;stroke-linecap:butt;stroke-linejoin:miter;stroke-opacity:1"
         d="m 1035.0784,319.01485 2.3845,3.64686 1.2624,-0.0701 1.3325,-1.5429 -2.3845,-3.64687 z"
         id="path5727" />
      <path
         style="fill:#39434e;fill-opacity:1;stroke:none;stroke-width:1px;stroke-linecap:butt;stroke-linejoin:miter;stroke-opacity:1"
         d="m 999.20587,318.97977 -2.3845,3.64686 -1.26239,-0.0701 -1.3325,-1.5429 2.38449,-3.64687 z"
         id="path5727-7" />
      <path
         style="fill:#39434e;fill-opacity:1;stroke:none;stroke-width:1px;stroke-linecap:butt;stroke-linejoin:miter;stroke-opacity:1"
         d="m 990.82509,302.67409 c 0.47389,2.37653 0.76789,4.89943 1.96337,7.03487 1.25668,1.50634 2.46043,3.10791 4.29967,3.94981 1.39131,0.90228 2.74975,1.99368 4.45627,2.18653 1.8892,0.73137 3.8993,0.71201 5.8885,0.62418 8.1285,-0.0483 16.2573,-0.0482 24.3854,-0.14698 2.4383,-0.50141 4.9265,-1.44361 6.4792,-3.49344 1.7168,-1.55995 2.542,-3.8094 3.6416,-5.79828 1.1656,-2.24724 1.015,-4.848 1.1343,-7.30223 -1.0286,0 -2.0572,0 -3.0858,0 -0.053,2.04097 0.1294,4.13772 -0.7002,6.06303 -0.669,1.7804 -1.6523,3.61246 -3.3038,4.64824 -1.4901,1.41703 -3.2972,2.39868 -5.2653,2.97241 -4.0885,0.16616 -8.2174,0.0564 -12.3218,0.12884 -4.7843,0.03 -9.5687,0.0568 -14.3531,0.0488 -2.2562,-0.23021 -4.18664,-1.33977 -5.87741,-2.79702 -1.41744,-1.55031 -3.13505,-3.01586 -3.60626,-5.15615 -0.75237,-1.82587 -0.33016,-3.82212 -0.43834,-5.74002 -1.13351,-0.37253 -4.04381,-0.63703 -3.29302,1.67456 0.009,0.36744 0.026,0.73577 -0.003,1.10289 z"
         id="path5744" />
    </g>
  </g>
</svg>
