<?xml version="1.0" encoding="UTF-8" standalone="no"?>
<!-- Created with Inkscape (http://www.inkscape.org/) -->

<svg
   xmlns:dc="http://purl.org/dc/elements/1.1/"
   xmlns:cc="http://creativecommons.org/ns#"
   xmlns:rdf="http://www.w3.org/1999/02/22-rdf-syntax-ns#"
   xmlns:svg="http://www.w3.org/2000/svg"
   xmlns="http://www.w3.org/2000/svg"
   xmlns:sodipodi="http://sodipodi.sourceforge.net/DTD/sodipodi-0.dtd"
   xmlns:inkscape="http://www.inkscape.org/namespaces/inkscape"
   width="50"
   height="50"
   viewBox="0 0 13.229166 13.229167"
   version="1.1"
   id="svg4556"
   inkscape:version="0.92.1 r15371"
   sodipodi:docname="bed.svg">
  <defs
     id="defs4550" />
  <sodipodi:namedview
     id="base"
     pagecolor="#ffffff"
     bordercolor="#666666"
     borderopacity="1.0"
     inkscape:pageopacity="0.0"
     inkscape:pageshadow="2"
     inkscape:zoom="1.979899"
     inkscape:cx="-132.85714"
     inkscape:cy="135.73593"
     inkscape:document-units="mm"
     inkscape:current-layer="layer1"
     showgrid="false"
     inkscape:window-width="1360"
     inkscape:window-height="724"
     inkscape:window-x="0"
     inkscape:window-y="0"
     inkscape:window-maximized="1"
     units="px" />
  <metadata
     id="metadata4553">
    <rdf:RDF>
      <cc:Work
         rdf:about="">
        <dc:format>image/svg+xml</dc:format>
        <dc:type
           rdf:resource="http://purl.org/dc/dcmitype/StillImage" />
        <dc:title></dc:title>
      </cc:Work>
    </rdf:RDF>
  </metadata>
  <g
     inkscape:label="Capa 1"
     inkscape:groupmode="layer"
     id="layer1"
     transform="translate(0,-283.77082)">
    <rect
       style="fill:#39434e;fill-opacity:1;stroke:none;stroke-width:0.21123366;stroke-opacity:1"
       id="rect4487"
       width="1.3332819"
       height="0.56294125"
       x="1.4278088"
       y="294.44495" />
    <rect
       style="fill:#39434e;fill-opacity:1;stroke:none;stroke-width:0.21123366;stroke-opacity:1"
       id="rect4487-3"
       width="1.3332819"
       height="0.56294125"
       x="10.864491"
       y="294.43018" />
    <path
       style="fill:#39434e;fill-opacity:1;stroke:none;stroke-width:0.21123366px;stroke-linecap:butt;stroke-linejoin:miter;stroke-opacity:1"
       d="m 11.954529,290.28842 c -3.4205832,0.007 -6.8411635,0.0137 -10.2617465,0.0207 -0.5304183,0.25628 -1.01801557,0.77198 -0.98346799,1.39689 -0.0418981,0.65563 -0.0197914,1.31308 0.007345,1.96883 4.03943199,0.01 8.07886219,0.0195 12.11829249,0.0293 0.0069,-0.77081 0.01373,-1.54163 0.0207,-2.31244 -0.141189,-0.4648 -0.438605,-0.91123 -0.901051,-1.10321 z m -10.1379786,0.50746 c 3.3520969,0.014 6.7041937,0.028 10.0562906,0.0421 0.378719,0.27678 0.444383,0.71987 0.3907,1.15223 -0.0046,0.38398 -0.0091,0.76797 -0.0136,1.15195 -3.6663346,0 -7.3326688,0 -10.9990039,0 0.00535,-0.64237 -0.021715,-1.28663 0.041667,-1.92709 0.1335343,-0.18405 0.3248254,-0.31503 0.5239596,-0.41917 z"
       id="path4506"
       inkscape:connector-curvature="0" />
    <path
       style="fill:#39434e;fill-opacity:1;stroke:none;stroke-width:0.21123366px;stroke-linecap:butt;stroke-linejoin:miter;stroke-opacity:1"
       d="m 3.0316637,289.73899 c 0.20252,0 0.4050425,0 0.6075625,0 0,-0.43996 0,-0.87992 0,-1.31988 0.054385,-0.15167 0.1320126,-0.30236 0.3141896,-0.2514 0.5656862,0 1.1313738,0 1.6970599,0 0.1435433,0.13231 0.1602547,0.31085 0.146653,0.49223 0,0.34571 0,0.69143 0,1.03715 0.1817498,-0.062 0.6063083,0.10668 0.5846487,-0.14862 -0.00631,-0.41138 -0.012654,-0.82275 -0.018993,-1.23411 -0.1275538,-0.30016 -0.3675027,-0.58551 -0.7177025,-0.58917 -0.6756055,-0.0131 -1.3512096,-0.0263 -2.0268151,-0.0394 -0.2704233,0.14232 -0.4566304,0.35554 -0.5170681,0.65713 -0.094252,0.26231 -0.037188,0.54828 -0.059965,0.82151 -0.00319,0.1915 -0.00639,0.38301 -0.00957,0.57451 z"
       id="path4511"
       inkscape:connector-curvature="0" />
    <path
       style="fill:#39434e;fill-opacity:1;stroke:none;stroke-width:0.21123366px;stroke-linecap:butt;stroke-linejoin:miter;stroke-opacity:1"
       d="m 7.242715,289.73899 c 0.2025201,0 0.4050426,0 0.6075626,0 0,-0.43996 0,-0.87992 0,-1.31988 0.054385,-0.15167 0.1320126,-0.30236 0.3141888,-0.2514 0.565686,0 1.1313745,0 1.6970605,0 0.1435431,0.13231 0.1602551,0.31085 0.1466531,0.49223 0,0.34571 0,0.69143 0,1.03715 0.18175,-0.062 0.606308,0.10668 0.584648,-0.14862 -0.0063,-0.41138 -0.01265,-0.82275 -0.01899,-1.23411 -0.12755,-0.30016 -0.367499,-0.58551 -0.7176986,-0.58917 -0.6756056,-0.0131 -1.3512095,-0.0263 -2.026815,-0.0394 -0.2704233,0.14232 -0.4566304,0.35554 -0.5170681,0.65713 -0.094253,0.26231 -0.037188,0.54828 -0.059965,0.82151 -0.00319,0.1915 -0.00639,0.38301 -0.00957,0.57451 z"
       id="path4511-6"
       inkscape:connector-curvature="0" />
    <path
       style="fill:#39434e;fill-opacity:1;stroke:none;stroke-width:0.21123366px;stroke-linecap:butt;stroke-linejoin:miter;stroke-opacity:1"
       d="m 1.4813248,289.53885 0.4818619,-0.0209 v -1.9484 l 0.1257031,-0.29331 0.2304556,-0.18855 0.460912,-0.33521 7.9402406,0.021 0.209506,0.0628 0.335206,0.23046 0.125704,0.31426 0.0838,0.31425 0.06285,1.9065 h 0.523763 v -2.15791 l -0.188551,-0.46091 -0.335209,-0.39806 -0.293305,-0.18855 -0.335209,-0.16761 -8.0659442,-0.0419 -0.439959,0.14666 -0.3771094,0.23045 -0.3771094,0.46091 -0.1885559,0.35616 z"
       id="path4534"
       inkscape:connector-curvature="0" />
  </g>
</svg>
