<?xml version="1.0" encoding="UTF-8" standalone="no"?>
<svg
   xmlns:dc="http://purl.org/dc/elements/1.1/"
   xmlns:cc="http://creativecommons.org/ns#"
   xmlns:rdf="http://www.w3.org/1999/02/22-rdf-syntax-ns#"
   xmlns:svg="http://www.w3.org/2000/svg"
   xmlns="http://www.w3.org/2000/svg"
   id="svg874"
   version="1.1"
   viewBox="0 0 66.145832 18.785417"
   height="71"
   width="250">
  <defs
     id="defs868" />
  <metadata
     id="metadata871">
    <rdf:RDF>
      <cc:Work
         rdf:about="">
        <dc:format>image/svg+xml</dc:format>
        <dc:type
           rdf:resource="http://purl.org/dc/dcmitype/StillImage" />
        <dc:title></dc:title>
      </cc:Work>
    </rdf:RDF>
  </metadata>
  <g
     style="fill:#ed1b24;fill-opacity:1;stroke:none"
     id="g4669"
     transform="matrix(0.30037814,0,0,0.30037814,-2.7347732,-0.69377196)">
    <path
       id="rect4564"
       d="m 40.725583,6.4246485 c -0.833819,-0.024 -1.677975,0.28279 -2.335937,0.9257799 L 14.475583,30.719578 c -1.315924,1.28598 -1.376454,3.4158 -0.136719,4.77539 l 0.06641,0.0742 c 1.239735,1.35958 3.297358,1.41879 4.613281,0.13281 l 0.554687,-0.54297 v 24.42383 c 0,0.0555 0.02375,0.10291 0.03125,0.15625 v -4.69727 a 6.2663703,6.2663703 0 0 0 5.726563,5.66797 h -0.486328 c 0.04302,0.005 0.08065,0.0254 0.125,0.0254 h 31.261718 a 6.2663703,6.2663703 0 0 0 5.726563,-5.66797 v -19.9082 l 0.554687,0.54297 c 1.315923,1.28598 3.373547,1.22677 4.613282,-0.13282 l 0.06641,-0.0742 c 1.239735,-1.35958 1.179204,-3.4894 -0.136719,-4.77539 L 43.141599,7.3504384 c -0.668334,-0.6531199 -1.52839,-0.9548999 -2.375,-0.9199199 -0.01378,-5.8e-4 -0.02723,-0.005 -0.04102,-0.006 z M 24.844724,60.709808 H 20.59863 c 0.04301,0.005 0.08065,0.0254 0.125,0.0254 h 3.998047 c 0.04368,0 0.08065,-0.0207 0.123047,-0.0254 z m 15.921875,-46.25977 14.990234,14.64844 c -0.06247,0.14207 -0.09961,0.2974 -0.09961,0.46289 v 25.00977 H 25.872068 v -25.00977 c -10e-7,-0.16452 -0.03606,-0.31952 -0.09766,-0.46094 z"
       style="opacity:1;fill:#ed1b24;fill-opacity:1;stroke:none;stroke-width:9.94171047;stroke-linejoin:miter;stroke-miterlimit:4;stroke-dasharray:none;stroke-opacity:1" />
    <path
       id="path4646"
       d="m 41.744141,28.474609 a 10.895884,11.065375 0 0 0 -10.896485,11.064453 10.895884,11.065375 0 0 0 10.896485,11.066407 10.895884,11.065375 0 0 0 8.939453,-4.763672 l -3.257813,-2.347656 a 6.9975791,6.7796612 0 0 1 -5.560547,2.679687 6.9975791,6.7796612 0 0 1 -6.998046,-6.779297 6.9975791,6.7796612 0 0 1 6.998046,-6.779297 6.9975791,6.7796612 0 0 1 5.289063,2.353516 l 3.005859,-2.447266 a 10.895884,11.065375 0 0 0 -8.416015,-4.046875 z"
       style="opacity:1;fill:#ed1b24;fill-opacity:1;stroke:none;stroke-width:12.06081104;stroke-linejoin:miter;stroke-miterlimit:4;stroke-dasharray:none;stroke-opacity:1" />
  </g>
  <g
     aria-label="creoprop"
     transform="matrix(0.26458333,0,0,0.26458332,-1.8662932,-8.4494286)"
     style="font-style:normal;font-variant:normal;font-weight:normal;font-stretch:normal;font-size:40px;line-height:125%;font-family:'Product Sans';-inkscape-font-specification:'Product Sans';letter-spacing:0px;word-spacing:0px;fill:#ed1b24;fill-opacity:1;stroke:none;stroke-width:1px;stroke-linecap:butt;stroke-linejoin:miter;stroke-opacity:1"
     id="flowRoot836">
    <path
       d="m 96.317188,86.615408 q -4.36,0 -7.240001,-2.96 -2.839999,-3.04 -2.839999,-7.48 0,-4.52 2.839999,-7.48 2.880001,-2.96 7.240001,-2.96 3,0 5.240002,1.52 2.24,1.48 3.36,4.12 l -3.36,1.4 q -1.560003,-3.68 -5.480002,-3.68 -2.520001,0 -4.360001,2.04 -1.8,2.04 -1.8,5.04 0,3 1.8,5.04 1.84,2.04 4.360001,2.04 4.040002,0 5.680002,-3.68 l 3.28,1.4 q -1.08,2.64 -3.4,4.16 -2.280003,1.48 -5.320002,1.48 z"
       id="path859" />
    <path
       d="m 111.66219,85.975408 h -3.68 v -19.6 h 3.52 v 3.2 h 0.16 q 0.56,-1.56 2.28,-2.64 1.76,-1.12 3.44,-1.12 1.6,0 2.72,0.48 l -1.12,3.56 q -0.68,-0.28 -2.16,-0.28 -2.08,0 -3.64,1.68 -1.52,1.68 -1.52,3.92 z"
       id="path861" />
    <path
       d="m 130.14156,86.615408 q -4.32,0 -7.12,-2.96 -2.8,-2.96 -2.8,-7.48 0,-4.48 2.72,-7.44 2.72,-3 6.96,-3 4.36,0 6.92,2.84 2.6,2.8 2.6,7.88 l -0.04,0.4 h -15.4 q 0.08,2.88 1.92,4.64 1.84,1.76 4.4,1.76 3.52,0 5.52,-3.52 l 3.28,1.6 q -1.32,2.48 -3.68,3.88 -2.32,1.4 -5.28,1.4 z m -5.88,-12.8 h 11.24 q -0.16,-2.04 -1.68,-3.36 -1.48,-1.36 -4,-1.36 -2.08,0 -3.6,1.28 -1.48,1.28 -1.96,3.44 z"
       id="path863" />
    <path
       d="m 141.86219,76.175408 q 0,-4.52 2.84,-7.48 2.88,-2.96 7.24,-2.96 4.36,0 7.2,2.96 2.88,2.96 2.88,7.48 0,4.56 -2.88,7.48 -2.84,2.96 -7.2,2.96 -4.36,0 -7.24,-2.96 -2.84,-2.96 -2.84,-7.48 z m 3.68,0 q 0,3.16 1.84,5.12 1.84,1.96 4.56,1.96 2.72,0 4.56,-1.96 1.84,-1.96 1.84,-5.12 0,-3.12 -1.84,-5.08 -1.88,-2 -4.56,-2 -2.68,0 -4.56,2 -1.84,1.96 -1.84,5.08 z"
       id="path865" />
    <path
       d="m 174.76969,83.255408 q 2.64,0 4.44,-2 1.8,-1.96 1.8,-5.08 0,-3.08 -1.8,-5.08 -1.8,-2 -4.44,-2 -2.68,0 -4.48,2 -1.76,2 -1.76,5.08 0,3.12 1.76,5.12 1.8,1.96 4.48,1.96 z m 0.6,3.36 q -2.16,0 -3.96,-0.92 -1.76,-0.92 -2.72,-2.44 h -0.16 l 0.16,2.72 v 8.64 h -3.68 v -28.24 h 3.52 v 2.72 h 0.16 q 0.96,-1.52 2.72,-2.44 1.8,-0.92 3.96,-0.92 3.88,0 6.56,3.04 2.76,3.08 2.76,7.4 0,4.36 -2.76,7.4 -2.68,3.04 -6.56,3.04 z"
       id="path867" />
    <path
       d="m 191.50594,85.975408 h -3.68 v -19.6 h 3.52 v 3.2 h 0.16 q 0.56,-1.56 2.28,-2.64 1.76,-1.12 3.44,-1.12 1.6,0 2.72,0.48 l -1.12,3.56 q -0.68,-0.28 -2.16,-0.28 -2.08,0 -3.64,1.68 -1.52,1.68 -1.52,3.92 z"
       id="path869" />
    <path
       d="m 200.06531,76.175408 q 0,-4.52 2.84,-7.48 2.88,-2.96 7.24,-2.96 4.36,0 7.2,2.96 2.88,2.96 2.88,7.48 0,4.56 -2.88,7.48 -2.84,2.96 -7.2,2.96 -4.36,0 -7.24,-2.96 -2.84,-2.96 -2.84,-7.48 z m 3.68,0 q 0,3.16 1.84,5.12 1.84,1.96 4.56,1.96 2.72,0 4.56,-1.96 1.84,-1.96 1.84,-5.12 0,-3.12 -1.84,-5.08 -1.88,-2 -4.56,-2 -2.68,0 -4.56,2 -1.84,1.96 -1.84,5.08 z"
       id="path871" />
    <path
       d="m 232.97281,83.255408 q 2.64,0 4.44,-2 1.8,-1.96 1.8,-5.08 0,-3.08 -1.8,-5.08 -1.8,-2 -4.44,-2 -2.68,0 -4.48,2 -1.76,2 -1.76,5.08 0,3.12 1.76,5.12 1.8,1.96 4.48,1.96 z m 0.6,3.36 q -2.16,0 -3.96,-0.92 -1.76,-0.92 -2.72,-2.44 h -0.16 l 0.16,2.72 v 8.64 h -3.68 v -28.24 h 3.52 v 2.72 h 0.16 q 0.96,-1.52 2.72,-2.44 1.8,-0.92 3.96,-0.92 3.88,0 6.56,3.04 2.76,3.08 2.76,7.4 0,4.36 -2.76,7.4 -2.68,3.04 -6.56,3.04 z"
       id="path873" />
  </g>
</svg>
