<?xml version="1.0" encoding="UTF-8" standalone="no"?>
<svg
   xmlns:dc="http://purl.org/dc/elements/1.1/"
   xmlns:cc="http://creativecommons.org/ns#"
   xmlns:rdf="http://www.w3.org/1999/02/22-rdf-syntax-ns#"
   xmlns:svg="http://www.w3.org/2000/svg"
   xmlns="http://www.w3.org/2000/svg"
   id="svg4592"
   version="1.1"
   viewBox="0 0 26.458333 26.458334"
   height="100"
   width="100">
  <defs
     id="defs4586" />
  <metadata
     id="metadata4589">
    <rdf:RDF>
      <cc:Work
         rdf:about="">
        <dc:format>image/svg+xml</dc:format>
        <dc:type
           rdf:resource="http://purl.org/dc/dcmitype/StillImage" />
        <dc:title></dc:title>
      </cc:Work>
    </rdf:RDF>
  </metadata>
  <g
     transform="translate(0,-270.54165)"
     id="layer1">
    <g
       id="g5354"
       transform="matrix(0.69905706,0,0,0.69905706,-802.97437,146.18749)">
      <path
         style="fill:none;stroke:#000000;stroke-width:1px;stroke-linecap:butt;stroke-linejoin:miter;stroke-opacity:1"
         d="m 1149.967,186.70957 17.5578,-7.26073 17.5577,7.26073"
         id="path5294" />
      <path
         style="fill:none;stroke:#000000;stroke-width:1px;stroke-linecap:butt;stroke-linejoin:miter;stroke-opacity:1"
         d="m 1154.7195,197.93069 0.132,-3.82838 0.9241,-1.18812 3.3003,-2.50825 h 17.1617 l 1.8482,1.05611 1.9802,1.98019 0.5281,1.84819 v 2.90429 z"
         id="path5296" />
      <path
         style="fill:none;stroke:#000000;stroke-width:1px;stroke-linecap:butt;stroke-linejoin:miter;stroke-opacity:1"
         d="m 1170.5611,198.06271 0.66,-1.45215 0.9241,-0.66007 1.0561,-0.39604 1.4522,0.39604 0.9241,0.79208 0.528,1.45215"
         id="path5298" />
      <path
         style="fill:none;stroke:#000000;stroke-width:1px;stroke-linecap:butt;stroke-linejoin:miter;stroke-opacity:1"
         d="m 1180.5941,198.19472 2.3762,1.18812 0.5281,1.18812 0.132,10.033 -31.9472,-0.26403 v -9.76897 l 0.528,-0.79208 1.4522,-1.05611 1.0561,-0.79208 z"
         id="path5300" />
      <path
         style="fill:none;stroke:#000000;stroke-width:1px;stroke-linecap:butt;stroke-linejoin:miter;stroke-opacity:1"
         d="m 1176.7657,210.60396 0.132,3.82838 3.6964,-0.13201 0.132,-3.69637 v 0 0"
         id="path5302" />
      <path
         style="fill:none;stroke:#000000;stroke-width:1px;stroke-linecap:butt;stroke-linejoin:miter;stroke-opacity:1"
         d="m 1154.4554,210.73597 0.2641,3.69637 h 3.5643 l 0.2641,-3.96039"
         id="path5304" />
      <path
         style="fill:none;stroke:#000000;stroke-width:1.03645194px;stroke-linecap:butt;stroke-linejoin:miter;stroke-opacity:1"
         d="m 1160.5276,207.6337 14.1264,0.0659"
         id="path5310" />
      <path
         style="fill:none;stroke:#000000;stroke-width:1.03645194px;stroke-linecap:butt;stroke-linejoin:miter;stroke-opacity:1"
         d="m 1160.6595,203.44229 14.1264,0.0659"
         id="path5310-5" />
      <circle
         style="fill:none;fill-opacity:1;stroke:#000000;stroke-width:1;stroke-miterlimit:4;stroke-dasharray:none;stroke-opacity:1"
         id="path5327"
         cx="1156.5676"
         cy="205.38943"
         r="2.0462046" />
      <circle
         style="fill:none;fill-opacity:1;stroke:#000000;stroke-width:1;stroke-miterlimit:4;stroke-dasharray:none;stroke-opacity:1"
         id="path5327-6"
         cx="1178.6798"
         cy="205.52145"
         r="2.0462046" />
    </g>
  </g>
</svg>
