<?xml version="1.0" encoding="UTF-8" standalone="no"?>
<svg
   xmlns:dc="http://purl.org/dc/elements/1.1/"
   xmlns:cc="http://creativecommons.org/ns#"
   xmlns:rdf="http://www.w3.org/1999/02/22-rdf-syntax-ns#"
   xmlns:svg="http://www.w3.org/2000/svg"
   xmlns="http://www.w3.org/2000/svg"
   xmlns:sodipodi="http://sodipodi.sourceforge.net/DTD/sodipodi-0.dtd"
   xmlns:inkscape="http://www.inkscape.org/namespaces/inkscape"
   id="svg4685"
   version="1.1"
   viewBox="0 0 13.229166 13.229167"
   height="50"
   width="50"
   sodipodi:docname="logo.svg"
   inkscape:version="0.92.3 (2405546, 2018-03-11)">
  <sodipodi:namedview
     pagecolor="#ffffff"
     bordercolor="#666666"
     borderopacity="1"
     objecttolerance="10"
     gridtolerance="10"
     guidetolerance="10"
     inkscape:pageopacity="0"
     inkscape:pageshadow="2"
     inkscape:window-width="671"
     inkscape:window-height="480"
     id="namedview9"
     showgrid="false"
     inkscape:zoom="4.72"
     inkscape:cx="25"
     inkscape:cy="25"
     inkscape:window-x="0"
     inkscape:window-y="0"
     inkscape:window-maximized="0"
     inkscape:current-layer="svg4685" />
  <defs
     id="defs4679" />
  <metadata
     id="metadata4682">
    <rdf:RDF>
      <cc:Work
         rdf:about="">
        <dc:format>image/svg+xml</dc:format>
        <dc:type
           rdf:resource="http://purl.org/dc/dcmitype/StillImage" />
        <dc:title />
      </cc:Work>
    </rdf:RDF>
  </metadata>
  <g
     transform="translate(0,-283.77082)"
     id="layer1"
     style="fill:#ffffff">
    <g
       style="fill:#ffffff;fill-opacity:1"
       transform="matrix(0.22366399,0,0,0.22366399,-2.5032192,282.87493)"
       id="g4669">
      <path
         style="opacity:1;fill:#ffffff;fill-opacity:1;stroke:none;stroke-width:9.94171047;stroke-linejoin:miter;stroke-miterlimit:4;stroke-dasharray:none;stroke-opacity:1"
         d="m 40.725583,6.4246485 c -0.833819,-0.024 -1.677975,0.28279 -2.335937,0.9257799 L 14.475583,30.719578 c -1.315924,1.28598 -1.376454,3.4158 -0.136719,4.77539 l 0.06641,0.0742 c 1.239735,1.35958 3.297358,1.41879 4.613281,0.13281 l 0.554687,-0.54297 v 24.42383 c 0,0.0555 0.02375,0.10291 0.03125,0.15625 v -4.69727 a 6.2663703,6.2663703 0 0 0 5.726563,5.66797 h -0.486328 c 0.04302,0.005 0.08065,0.0254 0.125,0.0254 h 31.261718 a 6.2663703,6.2663703 0 0 0 5.726563,-5.66797 v -19.9082 l 0.554687,0.54297 c 1.315923,1.28598 3.373547,1.22677 4.613282,-0.13282 l 0.06641,-0.0742 c 1.239735,-1.35958 1.179204,-3.4894 -0.136719,-4.77539 L 43.141599,7.3504384 c -0.668334,-0.6531199 -1.52839,-0.9548999 -2.375,-0.9199199 -0.01378,-5.8e-4 -0.02723,-0.005 -0.04102,-0.006 z M 24.844724,60.709808 H 20.59863 c 0.04301,0.005 0.08065,0.0254 0.125,0.0254 h 3.998047 c 0.04368,0 0.08065,-0.0207 0.123047,-0.0254 z m 15.921875,-46.25977 14.990234,14.64844 c -0.06247,0.14207 -0.09961,0.2974 -0.09961,0.46289 v 25.00977 H 25.872068 v -25.00977 c -10e-7,-0.16452 -0.03606,-0.31952 -0.09766,-0.46094 z"
         id="rect4564" />
      <path
         style="opacity:1;fill:#ffffff;fill-opacity:1;stroke:none;stroke-width:12.06081104;stroke-linejoin:miter;stroke-miterlimit:4;stroke-dasharray:none;stroke-opacity:1"
         d="m 41.744141,28.474609 a 10.895884,11.065375 0 0 0 -10.896485,11.064453 10.895884,11.065375 0 0 0 10.896485,11.066407 10.895884,11.065375 0 0 0 8.939453,-4.763672 l -3.257813,-2.347656 a 6.9975791,6.7796612 0 0 1 -5.560547,2.679687 6.9975791,6.7796612 0 0 1 -6.998046,-6.779297 6.9975791,6.7796612 0 0 1 6.998046,-6.779297 6.9975791,6.7796612 0 0 1 5.289063,2.353516 l 3.005859,-2.447266 a 10.895884,11.065375 0 0 0 -8.416015,-4.046875 z"
         id="path4646" />
    </g>
  </g>
</svg>
